<svg width="827" height="612" viewBox="0 0 827 612" fill="none" xmlns="http://www.w3.org/2000/svg">
<g clip-path="url(#clip0_4_53)">
<path d="M470.898 299.25C489.507 299.25 504.592 284.875 504.592 267.142C504.592 249.41 489.507 235.035 470.898 235.035C452.289 235.035 437.203 249.41 437.203 267.142C437.203 284.875 452.289 299.25 470.898 299.25Z" fill="#E6E6E6"/>
<path d="M553.477 308.402L518.266 274.849C520.965 270.849 522.794 266.373 523.644 261.687C524.495 257.001 524.35 252.199 523.217 247.567C522.085 242.936 519.988 238.568 517.052 234.722C514.115 230.876 510.399 227.632 506.122 225.18C498.07 220.596 488.504 219.061 479.32 220.879C470.136 222.697 462.003 227.735 456.532 234.995C451.499 241.721 449.081 249.908 449.695 258.148C450.309 266.388 453.917 274.167 459.898 280.147C465.878 286.127 473.859 289.935 482.467 290.916C491.075 291.897 499.773 289.99 507.065 285.523L542.277 319.075C543.762 320.489 545.776 321.283 547.876 321.283C549.976 321.282 551.99 320.487 553.474 319.072C554.959 317.657 555.794 315.739 555.794 313.738C555.795 311.737 554.961 309.818 553.477 308.402ZM505.75 273.597C501.387 277.754 495.646 280.342 489.506 280.918C483.365 281.494 477.205 280.024 472.075 276.758C466.944 273.491 463.161 268.631 461.37 263.004C459.579 257.378 459.89 251.334 462.251 245.902C464.613 240.47 468.877 235.986 474.319 233.215C479.761 230.443 486.043 229.555 492.094 230.702C498.146 231.849 503.593 234.96 507.507 239.505C511.422 244.05 513.561 249.748 513.561 255.627C513.566 258.965 512.878 262.271 511.537 265.355C510.197 268.438 508.23 271.24 505.75 273.597Z" fill="#3F3D56"/>
<path d="M808.722 357.894C898.772 452.787 637.733 589.542 426.808 589.542C215.882 589.542 69.9546 483.581 44.8931 357.894C-15.8723 53.145 562.629 -140.552 426.808 126.246C228.832 515.134 737.806 283.163 808.722 357.894Z" fill="#E6E6E6"/>
<path d="M600.193 282.474C670.537 351.415 466.62 450.77 301.85 450.77C137.08 450.77 23.0846 373.788 3.50715 282.474C-43.9614 61.069 407.951 -79.6548 301.85 114.178C147.196 396.712 544.795 228.181 600.193 282.474Z" fill="#3F3D56"/>
<path d="M125.919 157.87C62.732 155.219 13.7394 142.231 14.383 128.302C14.7689 119.951 32.6516 113.235 63.4454 109.878C63.5556 109.866 63.6674 109.874 63.7743 109.902C63.8811 109.931 63.981 109.979 64.0682 110.045C64.1553 110.111 64.228 110.192 64.282 110.284C64.336 110.377 64.3703 110.478 64.3829 110.583C64.3956 110.689 64.3862 110.795 64.3555 110.897C64.3248 110.998 64.2732 111.093 64.2039 111.176C64.1345 111.258 64.0487 111.327 63.9514 111.378C63.854 111.429 63.7471 111.461 63.6367 111.472C34.6289 114.635 16.4004 121.111 16.0649 128.372C15.4828 140.969 65.8238 153.743 125.993 156.267C186.163 158.792 237.487 150.283 238.069 137.687C238.406 130.394 220.732 122.395 191.944 116.81C191.835 116.789 191.732 116.748 191.64 116.689C191.548 116.63 191.469 116.555 191.408 116.467C191.347 116.379 191.304 116.28 191.283 116.177C191.262 116.073 191.263 115.967 191.285 115.863C191.307 115.76 191.35 115.662 191.412 115.574C191.474 115.487 191.554 115.412 191.646 115.354C191.738 115.296 191.842 115.255 191.951 115.236C192.06 115.216 192.171 115.216 192.28 115.238C222.836 121.166 240.139 129.374 239.751 137.757C239.108 151.687 189.107 160.521 125.919 157.87Z" fill="black"/>
<path d="M69.7997 160.203C75.0857 169.771 82.916 177.849 92.5073 183.629C102.099 189.408 113.114 192.686 124.453 193.134C135.791 193.583 147.054 191.186 157.115 186.184C167.175 181.182 175.681 173.75 181.781 164.632C144.397 165.112 107.014 163.633 69.7997 160.203Z" fill="black"/>
<path d="M188.771 147.76C191.952 138.667 192.869 128.994 191.449 119.506C190.028 110.017 186.309 100.974 180.587 93.0918C174.864 85.2095 167.295 78.7046 158.478 74.0919C149.661 69.4792 139.838 66.8853 129.788 66.5154C119.737 66.1456 109.733 68.01 100.569 71.961C91.4051 75.9121 83.3319 81.8414 76.9886 89.2796C70.6452 96.7178 66.2057 105.461 64.0215 114.817C61.8374 124.173 61.9684 133.884 64.4043 143.184C105.478 149.828 147.282 151.366 188.771 147.76Z" fill="black"/>
<path d="M142.114 106.357C146.298 106.357 149.69 103.125 149.69 99.1379C149.69 95.1511 146.298 91.9192 142.114 91.9192C137.93 91.9192 134.538 95.1511 134.538 99.1379C134.538 103.125 137.93 106.357 142.114 106.357Z" fill="white"/>
<path d="M103.125 134.422C110.098 134.422 115.751 129.035 115.751 122.391C115.751 115.746 110.098 110.359 103.125 110.359C96.1514 110.359 90.4985 115.746 90.4985 122.391C90.4985 129.035 96.1514 134.422 103.125 134.422Z" fill="white"/>
<path d="M293.688 122.637C298.336 122.637 302.105 119.046 302.105 114.616C302.105 110.186 298.336 106.595 293.688 106.595C289.039 106.595 285.27 110.186 285.27 114.616C285.27 119.046 289.039 122.637 293.688 122.637Z" fill="black"/>
<path d="M103.454 368.074C106.243 368.074 108.505 365.919 108.505 363.261C108.505 360.604 106.243 358.449 103.454 358.449C100.665 358.449 98.4035 360.604 98.4035 363.261C98.4035 365.919 100.665 368.074 103.454 368.074Z" fill="#E6E6E6"/>
<path d="M456.985 533.303C459.775 533.303 462.036 531.148 462.036 528.49C462.036 525.832 459.775 523.678 456.985 523.678C454.196 523.678 451.935 525.832 451.935 528.49C451.935 531.148 454.196 533.303 456.985 533.303Z" fill="#E6E6E6"/>
<path d="M127.864 275.033C129.259 275.033 130.39 273.955 130.39 272.626C130.39 271.297 129.259 270.22 127.864 270.22C126.47 270.22 125.339 271.297 125.339 272.626C125.339 273.955 126.47 275.033 127.864 275.033Z" fill="#E6E6E6"/>
<path d="M336.616 454.699C338.011 454.699 339.142 453.622 339.142 452.293C339.142 450.964 338.011 449.886 336.616 449.886C335.222 449.886 334.091 450.964 334.091 452.293C334.091 453.622 335.222 454.699 336.616 454.699Z" fill="#E6E6E6"/>
<path d="M716.242 431.439C717.636 431.439 718.767 430.361 718.767 429.032C718.767 427.703 717.636 426.626 716.242 426.626C714.847 426.626 713.716 427.703 713.716 429.032C713.716 430.361 714.847 431.439 716.242 431.439Z" fill="#E6E6E6"/>
<path d="M597.556 502.824C598.951 502.824 600.081 501.746 600.081 500.418C600.081 499.089 598.951 498.011 597.556 498.011C596.161 498.011 595.031 499.089 595.031 500.418C595.031 501.746 596.161 502.824 597.556 502.824Z" fill="#E6E6E6"/>
<path d="M473.82 416.199C475.215 416.199 476.345 415.122 476.345 413.793C476.345 412.464 475.215 411.386 473.82 411.386C472.425 411.386 471.295 412.464 471.295 413.793C471.295 415.122 472.425 416.199 473.82 416.199Z" fill="#E6E6E6"/>
<path d="M313.889 178.783C315.284 178.783 316.415 177.705 316.415 176.376C316.415 175.047 315.284 173.97 313.889 173.97C312.495 173.97 311.364 175.047 311.364 176.376C311.364 177.705 312.495 178.783 313.889 178.783Z" fill="#E6E6E6"/>
<path d="M334.091 60.0745C335.486 60.0745 336.616 58.9972 336.616 57.6682C336.616 56.3392 335.486 55.2619 334.091 55.2619C332.696 55.2619 331.566 56.3392 331.566 57.6682C331.566 58.9972 332.696 60.0745 334.091 60.0745Z" fill="#E6E6E6"/>
<path d="M322.307 559.772C323.701 559.772 324.832 558.694 324.832 557.365C324.832 556.036 323.701 554.959 322.307 554.959C320.912 554.959 319.781 556.036 319.781 557.365C319.781 558.694 320.912 559.772 322.307 559.772Z" fill="#E6E6E6"/>
<path d="M197.729 509.24C199.124 509.24 200.254 508.163 200.254 506.834C200.254 505.505 199.124 504.428 197.729 504.428C196.334 504.428 195.204 505.505 195.204 506.834C195.204 508.163 196.334 509.24 197.729 509.24Z" fill="#E6E6E6"/>
<path d="M592.506 422.616C593.9 422.616 595.031 421.538 595.031 420.209C595.031 418.88 593.9 417.803 592.506 417.803C591.111 417.803 589.98 418.88 589.98 420.209C589.98 421.538 591.111 422.616 592.506 422.616Z" fill="#E6E6E6"/>
<path d="M124.892 187.526C129.076 187.526 132.468 184.294 132.468 180.307C132.468 176.32 129.076 173.088 124.892 173.088C120.708 173.088 117.317 176.32 117.317 180.307C117.317 184.294 120.708 187.526 124.892 187.526Z" fill="white"/>
<path d="M296.213 291.074C296.213 312.634 261.231 362.873 251.007 377.095C250.699 377.525 250.285 377.876 249.802 378.119C249.318 378.363 248.78 378.49 248.234 378.49C247.687 378.49 247.149 378.363 246.665 378.119C246.182 377.876 245.768 377.525 245.46 377.095C235.237 362.873 200.254 312.634 200.254 291.074C200.254 285.07 201.495 279.125 203.907 273.578C206.318 268.032 209.852 262.992 214.307 258.746C218.762 254.501 224.052 251.133 229.873 248.836C235.694 246.538 241.933 245.355 248.234 245.355C254.534 245.355 260.773 246.538 266.594 248.836C272.416 251.133 277.705 254.501 282.16 258.746C286.615 262.992 290.149 268.032 292.561 273.578C294.972 279.125 296.213 285.07 296.213 291.074Z" fill="white"/>
<path d="M248.234 311.126C261.715 311.126 272.644 300.712 272.644 287.866C272.644 275.019 261.715 264.605 248.234 264.605C234.752 264.605 223.823 275.019 223.823 287.866C223.823 300.712 234.752 311.126 248.234 311.126Z" fill="black"/>
<path d="M247.813 403.366C263.386 403.366 276.011 401.031 276.011 398.152C276.011 395.273 263.386 392.939 247.813 392.939C232.239 392.939 219.614 395.273 219.614 398.152C219.614 401.031 232.239 403.366 247.813 403.366Z" fill="white"/>
<path d="M687.579 254.998C687.366 255.392 687.185 255.802 687.039 256.224L646.818 266.873L639.57 260.114L627.436 269.204L639.047 282.357C639.985 283.42 641.26 284.164 642.679 284.478C644.099 284.791 645.587 284.658 646.92 284.097L690.367 265.822C691.841 266.797 693.592 267.321 695.386 267.325C697.181 267.328 698.934 266.811 700.412 265.843C701.891 264.874 703.024 263.499 703.663 261.901C704.302 260.304 704.415 258.558 703.987 256.898C703.559 255.238 702.611 253.74 701.268 252.606C699.926 251.472 698.253 250.753 696.472 250.547C694.691 250.341 692.886 250.656 691.297 251.451C689.709 252.246 688.412 253.483 687.579 254.998H687.579Z" fill="#FFB8B8"/>
<path d="M645.401 267.497L630.304 278.694C629.875 279.012 629.378 279.239 628.849 279.358C628.319 279.477 627.768 279.486 627.235 279.384C626.701 279.283 626.196 279.072 625.756 278.768C625.315 278.464 624.948 278.073 624.68 277.621L615.298 261.798C613.599 259.695 612.845 257.035 613.201 254.403C613.558 251.771 614.995 249.381 617.198 247.757C619.401 246.133 622.19 245.407 624.953 245.74C627.716 246.073 630.228 247.436 631.938 249.531L645.691 262.038C646.084 262.397 646.392 262.831 646.594 263.313C646.795 263.795 646.885 264.313 646.858 264.831C646.83 265.349 646.686 265.855 646.435 266.315C646.183 266.775 645.831 267.178 645.401 267.497V267.497Z" fill="black"/>
<path d="M691.436 249.702L706.745 256.265C707.387 256.54 707.887 257.046 708.136 257.672C708.386 258.299 708.364 258.994 708.075 259.605L706.263 263.444C706.476 263.536 706.642 263.705 706.725 263.913C706.808 264.122 706.801 264.353 706.706 264.557L705.981 266.093C705.884 266.296 705.707 266.454 705.488 266.533C705.269 266.612 705.026 266.606 704.812 266.515L704.087 268.051C704.301 268.143 704.467 268.312 704.55 268.52C704.633 268.729 704.626 268.96 704.531 269.164L703.806 270.699C703.709 270.903 703.532 271.061 703.313 271.14C703.094 271.219 702.851 271.213 702.637 271.122L692.849 291.853C692.561 292.463 692.03 292.94 691.372 293.178C690.715 293.415 689.986 293.395 689.344 293.12L674.035 286.556C673.394 286.281 672.893 285.775 672.644 285.149C672.395 284.523 672.417 283.827 672.705 283.217L687.931 250.969C688.219 250.358 688.751 249.881 689.408 249.643C690.065 249.406 690.795 249.427 691.436 249.702Z" fill="#3F3D56"/>
<path d="M676.815 284.514L689.096 289.784C689.712 290.046 690.411 290.066 691.041 289.839C691.672 289.612 692.183 289.156 692.463 288.572L698.135 276.549L700.105 272.381L705.239 261.504C705.513 260.918 705.533 260.253 705.295 259.654C705.057 259.055 704.579 258.569 703.967 258.304L700.105 256.646L691.676 253.034C691.061 252.772 690.362 252.753 689.732 252.982C689.103 253.211 688.594 253.669 688.319 254.254L683.353 264.77L677.698 276.743L675.542 281.314C675.267 281.9 675.247 282.565 675.485 283.164C675.723 283.764 676.202 284.249 676.815 284.514Z" fill="#F2F2F2"/>
<path d="M651.152 433.48L661.471 433.479L666.381 395.55L651.15 395.551L651.152 433.48Z" fill="#FFB8B8"/>
<path d="M648.52 430.269L668.843 430.268H668.843C670.544 430.268 672.228 430.588 673.8 431.208C675.371 431.828 676.799 432.737 678.002 433.883C679.204 435.029 680.158 436.389 680.809 437.887C681.46 439.384 681.795 440.989 681.795 442.609V443.01L648.52 443.012L648.52 430.269Z" fill="#2F2E41"/>
<path d="M678.087 431.073L688.407 431.073L693.317 393.144L678.086 393.145L678.087 431.073Z" fill="#FFB8B8"/>
<path d="M675.455 427.863L695.778 427.862H695.779C697.48 427.862 699.164 428.181 700.735 428.801C702.307 429.422 703.734 430.331 704.937 431.477C706.14 432.623 707.094 433.983 707.745 435.48C708.395 436.978 708.73 438.582 708.73 440.203V440.604L675.456 440.605L675.455 427.863Z" fill="#2F2E41"/>
<path d="M604.863 344.477C607.061 350.687 611.232 356.093 616.796 359.945C622.361 363.798 629.045 365.907 635.923 365.981L636.445 365.989C641.773 366.133 648.027 364.497 654.163 362.147C666.284 357.503 677.926 350.067 681.015 348.022L675.779 395.978L673.658 415.421C673.605 415.924 673.662 416.432 673.827 416.913C673.992 417.393 674.261 417.835 674.616 418.211C674.971 418.586 675.405 418.887 675.89 419.093C676.374 419.299 676.899 419.406 677.429 419.407H690.501C691.339 419.408 692.154 419.143 692.818 418.656C693.482 418.168 693.958 417.485 694.171 416.712L715.753 338.389C716.401 336.045 716.453 333.587 715.905 331.22C715.358 328.852 714.227 326.643 712.605 324.775C710.984 322.907 708.919 321.434 706.581 320.478C704.244 319.521 701.701 319.109 699.163 319.275L654.332 322.203L657.463 310.268L617.446 307.733L617.329 307.814C616.369 308.479 615.435 309.177 614.543 309.907C612.312 311.705 610.334 313.77 608.659 316.051C605.662 320.144 603.751 324.868 603.09 329.819C602.428 334.769 603.037 339.799 604.863 344.477Z" fill="#2F2E41"/>
<path d="M604.863 344.477C607.061 350.687 611.232 356.093 616.796 359.945C622.361 363.798 629.045 365.907 635.923 365.981C642.5 362.809 648.847 359.221 654.921 355.241L654.163 362.147L647.564 422.64C647.511 423.143 647.568 423.651 647.733 424.131C647.898 424.612 648.167 425.054 648.522 425.43C648.877 425.805 649.311 426.106 649.796 426.312C650.28 426.518 650.805 426.625 651.335 426.626H664.407C665.245 426.627 666.06 426.362 666.724 425.875C667.388 425.387 667.864 424.704 668.077 423.931L675.779 395.979L689.659 345.608C690.307 343.263 690.359 340.806 689.811 338.439C689.264 336.071 688.133 333.862 686.511 331.994C684.89 330.126 682.825 328.653 680.487 327.697C678.15 326.74 675.607 326.328 673.069 326.494L628.238 329.422L631.369 317.487L608.659 316.051C605.662 320.144 603.751 324.868 603.09 329.819C602.428 334.77 603.037 339.799 604.863 344.477Z" fill="#2F2E41"/>
<path d="M614.485 312.674L614.184 312.64L607.202 279.926C607.142 279.643 601.434 251.426 618.933 236.675L619.238 234.656C619.316 234.139 619.51 233.645 619.808 233.207C620.106 232.769 620.5 232.397 620.963 232.118C621.426 231.84 621.947 231.66 622.49 231.591C623.034 231.523 623.586 231.567 624.109 231.722L640.594 236.594C641.527 236.868 642.313 237.476 642.787 238.289C643.261 239.103 643.385 240.06 643.135 240.959L641.533 246.768C643.755 249.254 669.912 279.262 660.801 302.38L656.72 317.581L614.485 312.674Z" fill="black"/>
<path d="M682.936 287.143C682.542 287.379 682.168 287.645 681.817 287.937L641.5 277.624L638.864 268.293L623.565 270.243L626.547 287.194C626.788 288.563 627.488 289.822 628.543 290.779C629.598 291.737 630.951 292.343 632.398 292.506L679.563 297.815C680.312 299.368 681.54 300.668 683.083 301.54C684.626 302.413 686.411 302.817 688.201 302.699C689.991 302.581 691.701 301.946 693.103 300.88C694.506 299.813 695.534 298.365 696.052 296.728C696.569 295.09 696.551 293.342 696.001 291.715C695.45 290.088 694.392 288.659 692.968 287.618C691.545 286.578 689.822 285.975 688.03 285.89C686.238 285.805 684.461 286.242 682.936 287.143H682.936Z" fill="#FFB8B8"/>
<path d="M639.947 277.475L620.973 279.804C620.433 279.87 619.885 279.825 619.365 279.671C618.845 279.517 618.366 279.258 617.961 278.912C617.555 278.566 617.233 278.14 617.016 277.665C616.799 277.189 616.692 276.675 616.702 276.156L617.064 257.985C616.723 255.351 617.493 252.696 619.204 250.602C620.915 248.508 623.428 247.146 626.191 246.815C628.954 246.484 631.743 247.21 633.945 248.835C636.147 250.459 637.583 252.85 637.938 255.482L643.108 272.915C643.256 273.414 643.289 273.938 643.206 274.45C643.122 274.963 642.923 275.452 642.623 275.885C642.323 276.318 641.929 276.684 641.467 276.958C641.005 277.232 640.487 277.409 639.947 277.475Z" fill="black"/>
<path d="M634.606 227.282C646.024 227.282 655.28 218.462 655.28 207.582C655.28 196.702 646.024 187.882 634.606 187.882C623.188 187.882 613.932 196.702 613.932 207.582C613.932 218.462 623.188 227.282 634.606 227.282Z" fill="#FFB8B8"/>
<path d="M633.518 209.227L630.93 204.736C626.027 223.771 634.687 239.525 634.687 239.525L601.075 224.605L601.395 219.311L598.069 222.908L593.29 220.398L592.659 216.965L589.051 217.816L602.219 195.047C614.999 173.381 633.578 181.653 633.578 181.653C663.136 180.314 659.526 208.102 659.526 208.102L633.518 209.227Z" fill="#2F2E41"/>
<path d="M398.177 356.034C402.944 353.122 397.147 336.401 385.23 318.687C373.313 300.973 359.788 288.974 355.021 291.885C350.254 294.797 356.051 311.518 367.968 329.232C379.886 346.946 393.411 358.945 398.177 356.034Z" fill="#3F3D56"/>
</g>
<defs>
<clipPath id="clip0_4_53">
<rect width="827" height="612" fill="white"/>
</clipPath>
</defs>
</svg>
